HIERARCHY
ROOT simHips
{
  OFFSET -23.398 116.558 -34.978
  CHANNELS 6 Xposition Yposition Zposition Zrotation Xrotation Yrotation
  JOINT simSpine
  {
    OFFSET -0.000355721 27.6045 -0.016921
    CHANNELS 3 Zrotation Xrotation Yrotation
    JOINT simLeftArm
    {
      OFFSET 13.5181 21.3012 0
      CHANNELS 3 Zrotation Xrotation Yrotation
      JOINT simLeftForeArm
      {
        OFFSET 29.578 0 0
        CHANNELS 3 Zrotation Xrotation Yrotation
        JOINT simLeftHand
        {
          OFFSET 29.578 0 0
          CHANNELS 3 Zrotation Xrotation Yrotation
          End Site
          {
            OFFSET 7.32568 1.52588e-05 0.0169305
          }
        }
      }
    }
    JOINT simHead
    {
      OFFSET 0 27.4458 -0.00489235
      CHANNELS 3 Zrotation Xrotation Yrotation
      End Site
      {
        OFFSET 0 0 0
      }
    }
    JOINT simRightArm
    {
      OFFSET -13.5174 21.3012 0
      CHANNELS 3 Zrotation Xrotation Yrotation
      JOINT simRightForeArm
      {
        OFFSET -29.578 0 0
        CHANNELS 3 Zrotation Xrotation Yrotation
        JOINT simRightHand
        {
          OFFSET -29.578 0 0
          CHANNELS 3 Zrotation Xrotation Yrotation
          End Site
          {
            OFFSET -7.32568 1.52588e-05 0.0169305
          }
        }
      }
    }
  }
  JOINT simRightUpLeg
  {
    OFFSET -8.44614 -11.0532 0.835684
    CHANNELS 3 Zrotation Xrotation Yrotation
    JOINT simRightLeg
    {
      OFFSET 0 -42.8199 0
      CHANNELS 3 Zrotation Xrotation Yrotation
      JOINT simRightFoot
      {
        OFFSET 0 -46.1246 0
        CHANNELS 3 Zrotation Xrotation Yrotation
        End Site
        {
          OFFSET 0.50614 -9.67405 14.6709
        }
      }
    }
  }
  JOINT simLeftUpLeg
  {
    OFFSET 8.44614 -11.0532 0.835684
    CHANNELS 3 Zrotation Xrotation Yrotation
    JOINT simLeftLeg
    {
      OFFSET 0 -42.8199 0
      CHANNELS 3 Zrotation Xrotation Yrotation
      JOINT simLeftFoot
      {
        OFFSET 0 -46.1246 0
        CHANNELS 3 Zrotation Xrotation Yrotation
        End Site
        {
          OFFSET -0.50614 -9.67405 14.6709
        }
      }
    }
  }
}
MOTION
Frames:	23
Frame Time:	0.0333333
-103.604 110.642 -115.532 -0.209363 0.140436 86.8173 13.64 -0.423392 -4.41538 -86.789 8.19255 -16.9173 36.3666 51.6819 -43.184 -2.79465 7.76734e-06 -10.3662 3.04837 -6.63646 -27.0908 83.1137 -17.7736 5.1763 -20.8256 48.0818 27.0761 -2.11981 4.75946e-05 5.09241 10.8771 -12.2324 -17.7755 0.00378784 15.0857 -0.235898 -8.37758 -35.4374 -19.481 3.47533 -7.7885 16.6006 -0.00950702 48.4971 -0.175232 -10.4033 -17.611 -17.8433 
-195.499 109.541 -221.614 3.14143 -4.78071 162.893 13.6934 -3.976e-06 -4.38969 -87.7714 2.68359 -16.3864 35.7641 57.461 -40.51 -2.09798 7.76781e-06 -10.3472 3.51684 -6.94028 -28.8837 83.5968 -14.6785 5.52226 -21.553 46.5543 28.548 -1.92234 4.75952e-05 5.08405 11.1913 -12.1136 -17.1283 0.0116775 16.2383 -0.247773 -8.3279 -36.4857 -18.997 5.6246 -11.0251 17.8698 -0.00716379 53.4873 -0.179114 -9.17322 -17.0354 -15.5536 
-183.095 109.773 -209.602 1.91424 -4.19863 150.697 13.3264 0.721234 -4.06175 -88.8885 -5.57883 -15.6253 32.7118 63.8465 -35.5849 -1.37329 7.78707e-06 -9.5377 4.69025 -7.59249 -29.9704 84.5805 -12.2484 6.90553 -22.657 46.5964 29.8799 -1.71037 4.75659e-05 5.46589 11.3062 -10.8563 -16.1532 0.0116173 15.6419 -0.222521 -7.61453 -36.6932 -17.311 7.36852 -15.1759 18.5973 -0.00576051 58.9564 -0.16946 -5.18248 -19.7592 -8.25963 
-182.409 110.027 -210.571 1.10382 -3.98041 147.405 12.3412 1.37519 -3.32805 -89.1402 -12.8947 -14.1566 29.2143 67.6128 -31.1649 -0.927815 7.81371e-06 -8.28993 4.74047 -7.27297 -30.6459 85.2827 -9.72483 7.7843 -23.1137 45.8957 30.7275 -1.63129 4.75564e-05 5.58447 10.9958 -9.49963 -14.514 0.01154 14.5947 -0.19127 -6.82283 -36.5205 -15.4262 7.80923 -18.1209 18.1664 -0.00521971 60.4751 -0.134845 -0.748761 -22.85 -0.1653 
-181.756 110.327 -211.446 0.161112 -3.7993 143.737 11.2199 1.85056 -2.34558 -88.4354 -18.0233 -11.9229 27.1515 69.2649 -28.7393 -0.409496 7.81967e-06 -7.98443 3.90492 -6.35844 -30.9794 85.9712 -7.9284 8.31194 -23.5053 45.0265 31.5832 -1.64477 4.75645e-05 5.48372 10.6157 -8.10023 -12.5912 0.0114358 13.0219 -0.154585 -5.98542 -35.9438 -13.4024 7.79639 -19.9639 16.6027 -0.00578453 58.62 -0.091874 2.07597 -25.6291 5.03345 
-181.19 110.646 -212.258 -0.847418 -3.5457 139.921 9.85216 2.32429 -1.35667 -87.0065 -20.6117 -8.84432 27.12 68.3088 -28.8632 -0.123162 7.81081e-06 -8.43478 4.00243 -5.994 -30.2674 86.4766 -5.98819 8.38285 -23.7776 43.4609 32.6408 -1.34123 4.75786e-05 5.304 10.0015 -6.75706 -11.1675 0.011367 11.2499 -0.113072 -4.86544 -35.1703 -10.8066 7.46569 -20.5221 14.07 -0.00297567 53.6853 -0.0490394 3.0608 -27.8213 6.75003 
-180.729 110.953 -213.014 -1.97243 -3.48446 136.091 8.63503 2.52678 -0.548963 -85.5583 -21.4037 -5.28776 28.1093 65.0415 -30.5055 -0.709402 7.80642e-06 -8.6492 3.84255 -5.72628 -29.1093 86.6746 -4.06962 8.60763 -23.7181 42.2974 33.1386 -1.20982 4.75837e-05 5.23696 9.39479 -5.75449 -9.43726 0.0112564 9.29492 -0.0716289 -3.94146 -34.2038 -8.55531 6.99579 -20.2293 10.3804 -0.000726501 46.185 -0.0139322 3.06596 -29.0341 6.56831 
-180.349 111.194 -213.745 -3.02034 -3.59133 132.436 7.65533 2.49488 -0.0315591 -84.595 -22.6429 -1.87273 29.2151 61.6854 -32.4246 -1.20391 7.80632e-06 -8.65432 3.82152 -5.53621 -27.6521 86.5012 -2.27951 8.63718 -23.8355 41.6643 33.6079 -1.07605 4.75773e-05 5.32042 8.94146 -5.01664 -7.24419 0.0111753 7.40488 -0.0335798 -3.3666 -33.1455 -6.98053 6.75725 -19.1389 5.61233 0.00121154 37.0849 0.0100743 2.90344 -29.7817 5.98974 
-180.015 111.351 -214.575 -3.93422 -3.81414 128.993 6.91098 2.32972 0.324808 -83.9902 -24.5777 0.875382 29.7605 59.1639 -33.6605 -1.32982 7.80616e-06 -8.66184 3.79701 -5.35715 -26.0964 86.1294 -1.06668 8.41558 -23.9486 41.4703 33.85 -1.00735 4.75682e-05 5.43769 8.54787 -4.48515 -4.84403 0.0111095 5.87137 -0.00115594 -2.93896 -32.2357 -5.73677 7.22845 -17.6042 0.771156 0.00236201 27.8985 0.0143891 2.34436 -30.1373 4.5953 
-179.691 111.444 -215.532 -4.63345 -4.09311 125.831 6.41844 2.14018 0.574553 -83.6028 -26.4843 2.76696 29.6954 57.5067 -34.0635 -1.31989 7.80602e-06 -8.66865 3.70886 -5.09886 -24.5244 85.6496 -0.82604 8.16522 -23.7888 41.7564 33.5021 -1.01264 4.7564e-05 5.48984 8.2027 -4.52896 -2.63921 0.0111517 5.70835 0.0171997 -2.52805 -32.0337 -4.64547 8.33365 -16.4784 -2.59287 0.0040945 20.5151 -0.00307419 0.741442 -29.5454 1.27163 
-179.332 111.507 -216.638 -5.07105 -4.25747 123.059 6.01979 2.16023 0.498691 -83.3336 -28.3036 3.83098 30.1117 57.1151 -34.6293 -1.34963 7.80613e-06 -8.66327 3.79644 -4.84294 -22.8331 85.0427 -1.37798 7.86057 -23.2973 42.3306 32.5976 -1.07582 4.75608e-05 5.53051 7.83866 -4.36624 -1.0416 0.0109209 5.72462 0.0282916 -2.02562 -32.0317 -3.50016 9.55322 -16.0518 -3.11165 0.00469032 15.6284 -0.0303757 -1.91929 -27.8696 -3.89678 
-178.93 111.54 -217.931 -5.41046 -4.32255 120.877 5.59374 2.22386 0.301846 -83.0483 -29.3402 4.145 30.7276 57.3912 -35.208 -1.7202 7.80306e-06 -8.81013 3.77973 -4.60182 -21.571 84.897 -4.6091 7.62158 -23.1004 44.5921 31.2819 -1.58455 4.75518e-05 5.6406 7.30034 -4.02101 0.107269 0.0110697 5.72979 0.0344102 -1.54696 -32.2115 -2.47058 10.3844 -16.1156 -1.33288 0.00656595 12.7992 -0.0554516 -4.40135 -25.9596 -8.66024 
-178.479 111.533 -219.41 -5.55817 -4.40814 119.509 5.21528 2.28961 -0.137055 -82.7408 -29.5296 3.89026 31.2231 57.4767 -35.7128 -1.98664 7.80073e-06 -8.9194 3.92334 -4.24046 -20.7451 84.5187 -8.50613 7.12646 -22.245 46.6843 29.3429 -2.1803 4.75495e-05 5.66902 6.7369 -3.51207 0.730656 0.0119407 5.78237 0.0381498 -1.16181 -32.4777 -1.66134 10.7533 -16.6565 1.02971 0.00780523 12.3035 -0.0669502 -5.37929 -25.094 -10.5364 
-177.921 111.47 -221.086 -5.54951 -4.60945 118.669 5.17166 2.30322 -0.760863 -82.6636 -29.2318 3.23018 31.8975 57.1162 -36.5431 -2.23471 7.80042e-06 -8.93407 4.24111 -3.69769 -20.0661 83.3449 -11.8824 6.14857 -20.8681 48.1152 27.1158 -2.66336 4.75631e-05 5.50077 6.26624 -2.8789 1.22538 0.0132668 5.94509 0.0401648 -1.02434 -32.8804 -1.36064 10.8429 -17.6131 3.20412 0.00959862 13.875 -0.065639 -5.18531 -25.0117 -10.1649 
-177.216 111.349 -222.896 -5.5094 -4.81546 117.801 5.15859 2.18856 -1.03899 -82.6138 -28.4947 2.47989 32.6823 56.0799 -37.7083 -2.76031 7.79618e-06 -9.12993 4.54607 -2.99228 -19.6799 81.8985 -15.7411 4.85903 -19.729 50.523 24.9206 -3.22348 4.75614e-05 5.52192 5.78509 -2.23188 1.86175 0.01453 6.34484 0.0415548 -0.932688 -33.4446 -1.1744 10.7665 -18.2869 4.84604 0.0131241 15.8001 -0.0672291 -5.19454 -23.9012 -10.1399 
-176.341 111.197 -224.799 -5.56304 -4.71245 116.575 4.70903 2.01822 -0.991152 -82.3974 -27.6014 1.99412 33.5851 54.3334 -39.2601 -2.97053 7.79548e-06 -9.16221 4.99788 -2.19802 -19.2879 80.1719 -18.5997 3.20319 -18.7215 53.1802 22.9457 -3.76329 4.75724e-05 5.38424 4.9938 -2.13651 2.9952 0.0146425 8.0865 0.0420671 -0.92357 -34.5417 -1.15287 10.1873 -17.6384 5.52971 0.0146045 16.6293 -0.0650098 -5.06222 -23.7977 -9.90347 
-175.371 111.064 -226.722 -5.80028 -3.92085 115.039 3.47652 2.03543 -0.87022 -82.0432 -26.8958 1.68057 34.14 52.0476 -40.6928 -3.09851 7.79763e-06 -9.06338 5.51361 -1.43831 -18.7467 78.8761 -21.1413 2.26571 -17.3211 56.8512 20.4304 -4.35838 4.76003e-05 5.01505 3.61159 -2.68704 5.12456 0.0132811 11.3394 0.0414421 -1.45676 -36.1957 -2.16499 8.79038 -16.294 5.7935 0.0140572 17.1826 -0.0578024 -4.37743 -25.3188 -8.69752 
-174.394 110.996 -228.568 -6.03971 -2.78339 113.39 1.82959 2.27654 -0.80221 -81.4616 -26.2334 1.27101 34.0081 49.967 -41.3864 -3.13818 7.80095e-06 -8.90943 5.78088 -0.911588 -18.1557 78.3007 -23.0325 1.34352 -16.2978 59.7775 18.6948 -4.99343 4.7624e-05 4.67762 2.12212 -4.02285 7.33684 0.0109468 16.0824 0.037807 -2.08979 -37.6703 -3.31926 7.04786 -14.9398 6.14784 0.0146076 17.7639 -0.0531763 -3.70612 -26.4206 -7.48194 
-173.506 111.051 -230.332 -6.14891 -2.0174 111.292 0.533212 2.45557 -0.619039 -80.6473 -25.9944 0.696506 33.6057 48.8466 -41.4308 -2.9357 7.80681e-06 -8.63063 5.61065 -0.520243 -17.1507 78.2056 -23.4965 -0.639313 -17.0395 59.7654 19.5321 -5.2939 4.76304e-05 4.58279 1.17001 -7.03163 8.37006 0.0116011 22.9676 0.0220914 -1.83322 -37.4453 -2.79195 5.89432 -13.0937 7.97309 0.0152316 17.2725 -0.0492186 -3.57579 -27.2756 -7.27626 
-172.744 111.221 -231.977 -6.27341 -1.72493 108.65 0.0171267 2.56879 -0.536277 -80.1324 -26.8566 -0.356908 33.5237 49.5442 -41.044 -3.00998 7.81483e-06 -8.23337 4.16475 -0.526256 -15.6381 78.5275 -22.1247 -2.42189 -17.6914 57.3285 20.7537 -4.69284 4.76179e-05 4.76633 0.535934 -11.9088 7.34731 0.0153406 31.3043 0.000520289 -0.779359 -34.4325 -0.787814 5.33533 -11.1196 11.2442 0.0154029 15.9907 -0.0441368 -3.97362 -27.7086 -8.03391 
-172.031 111.367 -233.407 -6.44094 -1.49569 106.023 0.0382222 2.7562 -0.884682 -80.3114 -28.8851 -2.08336 33.1418 52.3686 -39.5038 -2.64017 7.82065e-06 -7.93335 2.09548 -1.01222 -13.8298 79.168 -19.0805 -3.69178 -18.402 53.7282 22.4245 -2.91815 4.76021e-05 4.99005 -0.622593 -17.284 3.68219 0.0126082 39.0692 -0.0168501 0.389467 -29.9459 1.40931 4.82241 -9.43116 14.3924 0.0154602 14.8227 -0.0376974 -4.36711 -28.0018 -8.76055 
-171.307 111.453 -234.62 -6.54551 -1.33869 103.655 0.275494 2.99579 -1.64858 -80.8285 -31.2152 -4.20155 31.2235 55.9591 -36.1868 -1.84386 7.82525e-06 -7.6876 1.30605 -1.50061 -11.5353 80.2579 -16.7738 -4.54926 -19.1972 51.0226 24.1274 -1.74006 4.75663e-05 5.46137 -2.10089 -21.6871 -1.15316 0.0140397 44.2185 -0.0344948 -0.11792 -26.5115 0.484098 4.30628 -7.95366 16.7629 0.0154696 13.8675 -0.0316326 -4.49179 -28.3409 -8.96197 
-170.527 111.588 -235.608 -6.66596 -1.54209 101.231 0.842313 3.04705 -2.41449 -81.3233 -32.8113 -6.45651 27.4599 59.2283 -31.1665 -1.11424 7.82976e-06 -7.43909 1.12539 -1.90965 -9.28512 81.6297 -15.2003 -5.32416 -19.537 48.949 25.1994 -1.42837 4.75511e-05 5.64981 -2.8927 -24.5586 -5.71579 0.0150116 45.5576 -0.0505783 -2.154 -25.8762 -3.57813 4.07795 -6.5176 18.4325 0.0149716 12.6394 -0.0248913 -4.1756 -28.5064 -8.3553 
